<svg width="1280" height="720" viewBox="0 0 1280 720" fill="none" xmlns="http://www.w3.org/2000/svg">
<rect width="1280" height="720" fill="#1E1E1E"/>
<g clip-path="url(#clip0_0_1)">
<rect width="1280" height="720" fill="#E1E1E0"/>
<rect x="833" y="9" width="431" height="136" rx="16" fill="url(#paint0_linear_0_1)"/>
<rect x="833" y="157" width="431" height="136" rx="16" fill="url(#paint1_linear_0_1)"/>
<g filter="url(#filter0_d_0_1)">
<rect x="17" y="9" width="805" height="284" rx="16" fill="white"/>
</g>
<g filter="url(#filter1_d_0_1)">
<path d="M17 319C17 310.163 24.1634 303 33 303H616C624.837 303 632 310.163 632 319V689C632 697.837 624.837 705 616 705H33C24.1634 705 17 697.837 17 689V319Z" fill="white"/>
</g>
<g filter="url(#filter2_d_0_1)">
<path d="M646 321C646 312.163 653.163 305 662 305H1248C1256.84 305 1264 312.163 1264 321V689C1264 697.837 1256.84 705 1248 705H662C653.163 705 646 697.837 646 689V321Z" fill="white"/>
</g>
</g>
<defs>
<filter id="filter0_d_0_1" x="1" y="-3" width="837" height="316" filterUnits="userSpaceOnUse" color-interpolation-filters="sRGB">
<feFlood flood-opacity="0" result="BackgroundImageFix"/>
<feColorMatrix in="SourceAlpha" type="matrix" values="0 0 0 0 0 0 0 0 0 0 0 0 0 0 0 0 0 0 127 0" result="hardAlpha"/>
<feOffset dy="4"/>
<feGaussianBlur stdDeviation="8"/>
<feComposite in2="hardAlpha" operator="out"/>
<feColorMatrix type="matrix" values="0 0 0 0 0 0 0 0 0 0 0 0 0 0 0 0 0 0 0.25 0"/>
<feBlend mode="normal" in2="BackgroundImageFix" result="effect1_dropShadow_0_1"/>
<feBlend mode="normal" in="SourceGraphic" in2="effect1_dropShadow_0_1" result="shape"/>
</filter>
<filter id="filter1_d_0_1" x="1" y="291" width="647" height="434" filterUnits="userSpaceOnUse" color-interpolation-filters="sRGB">
<feFlood flood-opacity="0" result="BackgroundImageFix"/>
<feColorMatrix in="SourceAlpha" type="matrix" values="0 0 0 0 0 0 0 0 0 0 0 0 0 0 0 0 0 0 127 0" result="hardAlpha"/>
<feOffset dy="4"/>
<feGaussianBlur stdDeviation="8"/>
<feComposite in2="hardAlpha" operator="out"/>
<feColorMatrix type="matrix" values="0 0 0 0 0 0 0 0 0 0 0 0 0 0 0 0 0 0 0.25 0"/>
<feBlend mode="normal" in2="BackgroundImageFix" result="effect1_dropShadow_0_1"/>
<feBlend mode="normal" in="SourceGraphic" in2="effect1_dropShadow_0_1" result="shape"/>
</filter>
<filter id="filter2_d_0_1" x="630" y="293" width="650" height="432" filterUnits="userSpaceOnUse" color-interpolation-filters="sRGB">
<feFlood flood-opacity="0" result="BackgroundImageFix"/>
<feColorMatrix in="SourceAlpha" type="matrix" values="0 0 0 0 0 0 0 0 0 0 0 0 0 0 0 0 0 0 127 0" result="hardAlpha"/>
<feOffset dy="4"/>
<feGaussianBlur stdDeviation="8"/>
<feComposite in2="hardAlpha" operator="out"/>
<feColorMatrix type="matrix" values="0 0 0 0 0 0 0 0 0 0 0 0 0 0 0 0 0 0 0.25 0"/>
<feBlend mode="normal" in2="BackgroundImageFix" result="effect1_dropShadow_0_1"/>
<feBlend mode="normal" in="SourceGraphic" in2="effect1_dropShadow_0_1" result="shape"/>
</filter>
<linearGradient id="paint0_linear_0_1" x1="833" y1="77" x2="1264" y2="77" gradientUnits="userSpaceOnUse">
<stop stop-color="#48AECE" stop-opacity="0"/>
<stop offset="0.35" stop-color="#68ACBB"/>
<stop offset="1" stop-color="#23486A"/>
</linearGradient>
<linearGradient id="paint1_linear_0_1" x1="833" y1="225" x2="1264" y2="225" gradientUnits="userSpaceOnUse">
<stop stop-color="#48AECE" stop-opacity="0"/>
<stop offset="0.35" stop-color="#68ACBB"/>
<stop offset="1" stop-color="#23486A"/>
</linearGradient>
<clipPath id="clip0_0_1">
<rect width="1280" height="720" fill="white"/>
</clipPath>
</defs>
</svg>
